<svg width="50" height="50" viewBox="0 0 50 50" fill="none" xmlns="http://www.w3.org/2000/svg">
<path d="M21.5641 44.368L28.3594 37.3438C29.0625 36.6406 29.0625 35.5469 28.3594 34.8438C27.6563 34.1406 26.5625 34.1406 25.8594 34.8438L18.3594 42.4219C17.4219 43.3594 15.9375 43.3594 15 42.4219C14.0625 41.4844 14.0625 40 15 39.0625L18.9844 35L38.3594 15.625C41.25 12.4219 40.625 5.85938 38.3594 3.59376C36.0937 1.32813 30.0781 3.59376 30.0781 3.59376C30.0781 3.59376 25.5469 4.76563 23.9844 3.20313C23.2031 2.42188 26.0938 -1.64062 37.8125 3.12501" stroke="black" stroke-width="1.5625" stroke-linejoin="round"/>
<path d="M21.5625 26.9531V44.7656" stroke="black" stroke-width="1.5625" stroke-linejoin="round"/>
<path d="M22.0313 26.7969H20.9375C20.3125 26.7969 8.98438 15.2344 8.98438 15.2344C8.98438 14.6094 9.45312 14.1406 10.0781 14.1406H32.8906C33.5156 14.1406 33.9844 14.6484 33.9844 15.2344C33.9844 15.2344 22.6563 26.7969 22.0313 26.7969Z" stroke="black" stroke-width="1.5625" stroke-linejoin="round"/>
<path d="M21.5625 44.668L27.6562 49.2188H15.0781L21.5625 44.6914V44.668Z" stroke="black" stroke-width="1.5625" stroke-linejoin="round"/>
</svg>
